<svg width="133" height="82" viewBox="0 0 133 82" fill="none" xmlns="http://www.w3.org/2000/svg">
<g clip-path="url(#clip0_201_2)">
<path d="M66.2 75V5H54.6V54.8L19.7 5H7.9V75H19.6V25.2L54.4 75H66.2ZM115.819 75H129.519L110.519 44.6C117.319 42.7 125.919 37.8 125.919 25.4C125.919 5 102.519 5 102.519 5H79.2188V16.7L90.3188 34.2H79.2188V75H90.9188V45.8H97.6187L115.819 75ZM104.019 34.1L93.1188 16.7H102.519C102.519 16.7 114.219 16.7 114.219 25.4C114.219 32.3 107.119 33.8 104.019 34.1Z" fill="white"/>
</g>
<defs>
<clipPath id="clip0_201_2">
<rect width="133" height="82" fill="white"/>
</clipPath>
</defs>
</svg>
