<svg width="123" height="70" viewBox="0 0 123 70" fill="none" xmlns="http://www.w3.org/2000/svg">
<path d="M59.2 70V-4.76837e-06H47.6V49.8L12.7 -4.76837e-06H0.9V70H12.6V20.2L47.4 70H59.2ZM108.819 70H122.519L103.519 39.6C110.319 37.7 118.919 32.8 118.919 20.4C118.919 -4.76837e-06 95.5188 -4.76837e-06 95.5188 -4.76837e-06H72.2188V11.7L83.3188 29.2H72.2188V70H83.9188V40.8H90.6187L108.819 70ZM97.0188 29.1L86.1188 11.7H95.5188C95.5188 11.7 107.219 11.7 107.219 20.4C107.219 27.3 100.119 28.8 97.0188 29.1Z" fill="#8c8f8f"/>
</svg>
